<svg xmlns:dc="http://purl.org/dc/elements/1.1/" xmlns:cc="http://creativecommons.org/ns#" xmlns:rdf="http://www.w3.org/1999/02/22-rdf-syntax-ns#" xmlns:svg="http://www.w3.org/2000/svg" xmlns="http://www.w3.org/2000/svg" viewBox="0 0 180 180"><metadata><rdf:RDF><cc:Work><dc:format>image/svg+xml</dc:format><dc:type rdf:resource="http://purl.org/dc/dcmitype/StillImage"/><dc:title>Bottts</dc:title><dc:creator><cc:Agent><dc:title>Pablo Stanley</dc:title></cc:Agent></dc:creator><dc:source>https://bottts.com/</dc:source><cc:license rdf:resource="https://bottts.com/"/><dc:contributor><cc:Agent><dc:title>Florian Körner</dc:title></cc:Agent></dc:contributor></cc:Work></rdf:RDF></metadata><rect fill="transparent" width="180" height="180" x="0" y="0"/><g transform="translate(0, 66)"><path fill-rule="evenodd" clip-rule="evenodd" d="M12 39C12 50.9264 17.9543 61 28 61C38.0457 61 48 50.9264 48 39C48 26.0736 38.0457 16 28 16C17.9543 16 12 26.0736 12 39ZM168 39C168 50.9264 162.046 61 152 61C141.954 61 132 50.9264 132 39C132 26.0736 141.954 16 152 16C162.046 16 168 26.0736 168 39Z" fill="#E1E6E8"/><mask id="sidesRoundMask0" mask-type="alpha" maskUnits="userSpaceOnUse" x="12" y="16" width="156" height="45"><path fill-rule="evenodd" clip-rule="evenodd" d="M12 39C12 50.9264 17.9543 61 28 61C38.0457 61 48 50.9264 48 39C48 26.0736 38.0457 16 28 16C17.9543 16 12 26.0736 12 39ZM168 39C168 50.9264 162.046 61 152 61C141.954 61 132 50.9264 132 39C132 26.0736 141.954 16 152 16C162.046 16 168 26.0736 168 39Z" fill="white"/></mask><g mask="url(#sidesRoundMask0)"><rect width="180" height="76" fill="#5C6BC0"/><rect x="20" width="140" height="76" fill="black" fill-opacity="0.2"/></g></g><g transform="translate(41, 0)"><path fill-rule="evenodd" clip-rule="evenodd" d="M43.7993 28.3969C35.9888 20.5865 35.9888 7.92316 43.7993 0.112671L57.2343 13.5477L63.6874 7.09463C62.7814 5.56072 62.9874 3.55192 64.3054 2.23399C65.8675 0.671894 68.4001 0.671894 69.9622 2.23399C71.5243 3.79609 71.5243 6.32875 69.9622 7.89085C68.6443 9.20878 66.6355 9.41478 65.1016 8.50884L58.6485 14.9619L72.0835 28.3969C66.6332 33.8472 58.8199 35.4942 51.9414 33.3379V52.1127H47.9414V31.581C46.4606 30.7252 45.0661 29.6638 43.7993 28.3969Z" fill="#E1E6E8"/><mask id="topRadarMask0" mask-type="alpha" maskUnits="userSpaceOnUse" x="37" y="0" width="36" height="53"><path fill-rule="evenodd" clip-rule="evenodd" d="M43.7993 28.3969C35.9888 20.5865 35.9888 7.92316 43.7993 0.112671L57.2343 13.5477L63.6874 7.09463C62.7814 5.56072 62.9874 3.55192 64.3054 2.23399C65.8675 0.671894 68.4001 0.671894 69.9622 2.23399C71.5243 3.79609 71.5243 6.32875 69.9622 7.89085C68.6443 9.20878 66.6355 9.41478 65.1016 8.50884L58.6485 14.9619L72.0835 28.3969C66.6332 33.8472 58.8199 35.4942 51.9414 33.3379V52.1127H47.9414V31.581C46.4606 30.7252 45.0661 29.6638 43.7993 28.3969Z" fill="white"/></mask><g mask="url(#topRadarMask0)"><rect width="100" height="52" fill="#5C6BC0"/><path fill-rule="evenodd" clip-rule="evenodd" d="M43.7988 0.112671C35.9883 7.92316 35.9883 20.5865 43.7988 28.3969C51.6093 36.2074 64.2726 36.2074 72.0831 28.3969" fill="white" fill-opacity="0.2"/><path fill-rule="evenodd" clip-rule="evenodd" d="M64.3054 7.89092C65.8675 9.45302 68.4001 9.45302 69.9622 7.89092C71.5243 6.32882 71.5243 3.79616 69.9622 2.23407C68.4001 0.67197 65.8675 0.67197 64.3054 2.23407C62.7433 3.79616 62.7433 6.32882 64.3054 7.89092Z" fill="white" fill-opacity="0.8"/></g></g><g transform="translate(25, 44)"><path fill-rule="evenodd" clip-rule="evenodd" d="M66 0C124.352 0 130.001 40.6854 130 78C129.999 111.315 104.534 120 66 120C28.5387 120 0 111.315 0 78C0 40.6854 7.64843 0 66 0Z" fill="black" fill-opacity="0.8"/><mask id="faceRound01Mask0" mask-type="alpha" maskUnits="userSpaceOnUse" x="0" y="0" width="130" height="120"><path fill-rule="evenodd" clip-rule="evenodd" d="M66 0C124.352 0 130.001 40.6854 130 78C129.999 111.315 104.534 120 66 120C28.5387 120 0 111.315 0 78C0 40.6854 7.64843 0 66 0Z" fill="white"/></mask><g mask="url(#faceRound01Mask0)"><rect x="-4" y="-2" width="138" height="124" fill="#3949AB"/>undefined</g></g><g transform="translate(52, 124)"><rect x="4" y="4" width="68" height="24" rx="5" fill="black" fill-opacity="0.2"/><rect x="8" y="8" width="60" height="16" rx="2" fill="black" fill-opacity="0.8"/><path d="M9 17H20L22 13L25 20L29 12L31 21L34 10L37 20L40 17H55L58 13L60 20L63 17H67" stroke="#4EFAC9" stroke-width="2" stroke-linecap="round" stroke-linejoin="round"/></g></svg>